<svg xmlns="http://www.w3.org/2000/svg" width="46.825" height="28.095" viewBox="0 0 46.825 28.095">
  <path id="graduation-cap-solid" d="M45.538,70.524l-20.408-6.27a5.845,5.845,0,0,0-3.423,0L1.3,70.524a1.723,1.723,0,0,0,0,3.336l3.558,1.093a5.765,5.765,0,0,0-1.308,3.431,2.258,2.258,0,0,0-.187,3.879L1.492,90.668a1.17,1.17,0,0,0,1.142,1.425H6.739a1.171,1.171,0,0,0,1.143-1.425L6.014,82.263a2.252,2.252,0,0,0-.132-3.843A3.451,3.451,0,0,1,7.4,75.734l14.309,4.4a5.851,5.851,0,0,0,3.423,0l20.409-6.27A1.723,1.723,0,0,0,45.538,70.524ZM25.816,82.368a8.19,8.19,0,0,1-4.8,0l-10.61-3.259L9.37,87.41c0,2.586,6.289,4.683,14.048,4.683S37.465,90,37.465,87.41l-1.037-8.3Z" transform="translate(-0.005 -63.997)" fill="#321fec"/>
</svg>


