<svg xmlns="http://www.w3.org/2000/svg" width="32.489" height="37.13" viewBox="0 0 32.489 37.13">
  <path id="paste-solid" d="M9.283,13.344a4.066,4.066,0,0,1,4.061-4.061h9.863V4.061a1.74,1.74,0,0,0-1.74-1.74H15.62a4.637,4.637,0,0,0-8.034,0H1.74A1.74,1.74,0,0,0,0,4.061V28.428a1.74,1.74,0,0,0,1.74,1.74H9.283ZM11.6,2.9a1.74,1.74,0,1,1-1.74,1.74A1.74,1.74,0,0,1,11.6,2.9ZM24.947,20.886h7.542v14.5a1.74,1.74,0,0,1-1.74,1.74h-17.4a1.74,1.74,0,0,1-1.74-1.74V13.344a1.74,1.74,0,0,1,1.74-1.74h9.863v7.542A1.746,1.746,0,0,0,24.947,20.886Zm7.542-2.76v.439H25.527V11.6h.439a1.74,1.74,0,0,1,1.231.51l4.782,4.782A1.741,1.741,0,0,1,32.489,18.126Z" fill="#321fec"/>
</svg>
