<svg xmlns="http://www.w3.org/2000/svg" width="18.68" height="18.68" viewBox="0 0 18.68 18.68">
  <path id="Icon_awesome-linkedin" data-name="Icon awesome-linkedin" d="M17.345,2.25H1.33A1.34,1.34,0,0,0,0,3.6V19.583A1.34,1.34,0,0,0,1.33,20.93H17.345a1.344,1.344,0,0,0,1.334-1.347V3.6A1.344,1.344,0,0,0,17.345,2.25ZM5.646,18.261H2.877V9.347H5.65v8.915ZM4.261,8.129A1.605,1.605,0,1,1,5.867,6.524,1.606,1.606,0,0,1,4.261,8.129ZM16.024,18.261H13.255V13.925c0-1.034-.021-2.364-1.439-2.364-1.443,0-1.664,1.126-1.664,2.289v4.411H7.384V9.347H10.04v1.218h.038A2.916,2.916,0,0,1,12.7,9.126c2.8,0,3.323,1.847,3.323,4.249Z" transform="translate(0 -2.25)" fill="#fff"/>
</svg>
