<svg xmlns="http://www.w3.org/2000/svg" width="19.109" height="19.109" viewBox="0 0 19.109 19.109">
  <path id="Icon_awesome-whatsapp" data-name="Icon awesome-whatsapp" d="M16.247,5.027a9.472,9.472,0,0,0-14.9,11.427L0,21.359l5.02-1.318a9.441,9.441,0,0,0,4.526,1.152h0a9.56,9.56,0,0,0,9.559-9.469,9.507,9.507,0,0,0-2.862-6.7ZM9.55,19.6a7.857,7.857,0,0,1-4.01-1.1l-.286-.171-2.977.781.793-2.9-.188-.3A7.886,7.886,0,1,1,17.51,11.724,7.959,7.959,0,0,1,9.55,19.6ZM13.867,13.7c-.235-.119-1.4-.691-1.617-.768s-.375-.119-.533.119-.61.768-.751.93-.277.179-.512.06a6.441,6.441,0,0,1-3.22-2.815c-.243-.418.243-.388.7-1.292a.438.438,0,0,0-.021-.414c-.06-.119-.533-1.284-.729-1.757s-.388-.4-.533-.405-.294-.009-.452-.009a.876.876,0,0,0-.631.294,2.659,2.659,0,0,0-.828,1.975A4.635,4.635,0,0,0,5.7,12.069a10.573,10.573,0,0,0,4.044,3.574,4.63,4.63,0,0,0,2.841.593,2.423,2.423,0,0,0,1.6-1.126,1.979,1.979,0,0,0,.136-1.126C14.26,13.878,14.1,13.818,13.867,13.7Z" transform="translate(0 -2.25)" fill="#fff"/>
</svg>
